<?xml version="1.0" encoding="UTF-8" standalone="no"?>
<!-- Created with Inkscape (http://www.inkscape.org/) -->

<svg
   xmlns:dc="http://purl.org/dc/elements/1.1/"
   xmlns:cc="http://creativecommons.org/ns#"
   xmlns:rdf="http://www.w3.org/1999/02/22-rdf-syntax-ns#"
   xmlns:svg="http://www.w3.org/2000/svg"
   xmlns="http://www.w3.org/2000/svg"
   xmlns:sodipodi="http://sodipodi.sourceforge.net/DTD/sodipodi-0.dtd"
   xmlns:inkscape="http://www.inkscape.org/namespaces/inkscape"
   width="338.8212"
   height="163.23396"
   id="svg2"
   version="1.1"
   inkscape:version="0.48.3.1 r9886"
   sodipodi:docname="New document 1">
  <defs
     id="defs4">
    <linearGradient
       id="linearGradient3881">
      <stop
         style="stop-color:#f7f2b6;stop-opacity:1"
         offset="0"
         id="stop3883" />
      <stop
         id="stop3889"
         offset="0.4276523"
         style="stop-color:#e5c744;stop-opacity:1" />
      <stop
         style="stop-color:#e6c847;stop-opacity:1"
         offset="0.71382618"
         id="stop3891" />
      <stop
         style="stop-color:#edd86f;stop-opacity:1"
         offset="1"
         id="stop3885" />
    </linearGradient>
  </defs>
  <sodipodi:namedview
     id="base"
     pagecolor="#ffffff"
     bordercolor="#666666"
     borderopacity="1.0"
     inkscape:pageopacity="0.0"
     inkscape:pageshadow="2"
     inkscape:zoom="0.98994949"
     inkscape:cx="-54.45555"
     inkscape:cy="110.46824"
     inkscape:document-units="px"
     inkscape:current-layer="layer1"
     showgrid="false"
     showguides="true"
     inkscape:guide-bbox="true"
     fit-margin-top="0"
     fit-margin-left="0"
     fit-margin-right="0"
     fit-margin-bottom="0"
     inkscape:window-width="1920"
     inkscape:window-height="1056"
     inkscape:window-x="0"
     inkscape:window-y="24"
     inkscape:window-maximized="1" />
  <metadata
     id="metadata7">
    <rdf:RDF>
      <cc:Work
         rdf:about="">
        <dc:format>image/svg+xml</dc:format>
        <dc:type
           rdf:resource="http://purl.org/dc/dcmitype/StillImage" />
        <dc:title></dc:title>
      </cc:Work>
    </rdf:RDF>
  </metadata>
  <g
     inkscape:label="Layer 1"
     inkscape:groupmode="layer"
     id="layer1"
     transform="translate(-235.19473,-568.59241)">
    <g
       style="font-size:40px;font-style:normal;font-variant:normal;font-weight:normal;font-stretch:normal;text-align:center;line-height:60.00000238%;letter-spacing:0px;word-spacing:0px;text-anchor:middle;fill:#000000;fill-opacity:1;stroke:#31280c;stroke-width:5;stroke-miterlimit:4;stroke-opacity:1;font-family:Liberation Sans;-inkscape-font-specification:Liberation Sans"
       id="text2985">
      <g
         id="g3869"
         style="fill:#000000;fill-opacity:1;stroke:none">
        <path
           sodipodi:nodetypes="ccscccccccc"
           inkscape:connector-curvature="0"
           id="path3805"
           style="font-size:100px;font-weight:500;line-height:60.00000238%;fill:#000000;fill-opacity:1;stroke:none;font-family:LatiniaBlack;-inkscape-font-specification:LatiniaBlack Medium"
           d="m 372.00963,640.17444 8,-21.00195 c 0,0 -7.24314,3.7279 -12.06055,5.38085 -6.21958,2.13406 -19.72656,0 -19.72656,0 l 0,-44.38867 9.81445,-11.57226 -35.5957,0 6.5918,11.57226 0,48.38867 c -1.68519,5.02259 -6.49338,8.48369 -11.94894,11.6211 z" />
        <path
           id="path3807"
           style="font-size:100px;font-weight:500;line-height:60.00000238%;fill:#000000;fill-opacity:1;stroke:none;font-family:LatiniaBlack;-inkscape-font-specification:LatiniaBlack Medium"
           d="m 381.6438,612.97717 c 0,8.72398 2.53906,15.72267 7.61719,20.9961 5.013,5.20833 11.75128,7.81249 20.21484,7.8125 8.3984,-10e-6 15.1204,-2.63672 20.16602,-7.91016 5.01296,-5.20832 7.51947,-12.17446 7.51953,-20.89844 -6e-5,-8.78902 -2.53912,-15.82027 -7.61719,-21.09375 -5.01307,-5.20828 -11.70251,-7.81244 -20.06836,-7.8125 -8.46356,6e-5 -15.23439,2.63678 -20.3125,7.91016 -5.01303,5.20838 -7.51953,12.20707 -7.51953,20.99609 m 19.23828,0 c -2e-5,-5.33851 0.66729,-9.60282 2.00195,-12.79297 1.26951,-2.99474 3.46677,-4.49214 6.5918,-4.49218 3.05986,4e-5 5.22457,1.52999 6.49414,4.58984 1.3346,3.05993 2.00191,7.2917 2.00195,12.69531 -4e-5,5.27346 -0.66735,9.50523 -2.00195,12.69532 -1.33467,2.9948 -3.49938,4.49219 -6.49414,4.49218 -3.12503,10e-6 -5.32229,-1.52993 -6.5918,-4.58984 -1.33466,-3.05988 -2.00197,-7.25909 -2.00195,-12.59766"
           inkscape:connector-curvature="0" />
        <path
           d="m 485.63705,640.17444 8,-21.00195 c 0,0 -7.24314,3.7279 -12.06055,5.38085 -6.21958,2.13406 -19.72656,0 -19.72656,0 l 0,-44.38867 9.81445,-11.57226 -35.5957,0 6.5918,11.57226 0,48.38867 c -1.68519,5.02259 -6.49338,8.48369 -11.94894,11.6211 z"
           style="font-size:100px;font-weight:500;line-height:60.00000238%;fill:#000000;fill-opacity:1;stroke:none;font-family:LatiniaBlack;-inkscape-font-specification:LatiniaBlack Medium"
           id="path3821"
           inkscape:connector-curvature="0"
           sodipodi:nodetypes="ccscccccccc" />
      </g>
      <g
         id="g3874"
         style="fill:#000000;stroke:none">
        <path
           sodipodi:nodetypes="cccccccccccccccccc"
           inkscape:connector-curvature="0"
           id="path3813"
           style="font-size:100px;font-weight:500;line-height:60.00000238%;fill:#000000;fill-opacity:1;stroke:none;font-family:LatiniaBlack;-inkscape-font-specification:LatiniaBlack Medium"
           d="m 303.57447,718.63888 31.78711,0 -7.71485,-11.62109 3.02735,-8.88672 23.48633,0 2.88086,8.88672 -7.37305,11.62109 34.66797,0 -7.27539,-11.62109 -21.92383,-59.96094 -30.38225,0 6.00197,7.78287 -19.90683,52.17807 -7.27539,11.62109 m 31.29883,-33.99414 7.56836,-18.44308 7.51953,18.44308 -15.08789,0" />
        <path
           sodipodi:nodetypes="ccccscccccccccscccccc"
           inkscape:connector-curvature="0"
           id="path3817"
           style="font-size:100px;font-weight:500;line-height:60.00000238%;fill:#000000;fill-opacity:1;stroke:none;font-family:LatiniaBlack;-inkscape-font-specification:LatiniaBlack Medium"
           d="m 440.31901,718.54959 61.66992,0 0,-23.48633 -1.75781,0 c 0,0 -7.557,9.74483 -13.03711,11.86524 -6.55749,2.53728 -21.09375,0 -21.09375,0 l 0,-19.38477 9.82031,0 c 3.91379,0.88309 8.86588,2.3516 11.43834,5.24669 l 0.13393,-16.35528 -1.5625,0 -10.00977,0.0246 -9.82031,0 0.29297,-16.13421 c 0,0 10.10677,-1.51876 14.80078,0 5.78943,1.8732 14.79492,8.90765 14.79492,8.90765 l 0,-22.26563 -55.66992,0 6.5918,11.57227 0,48.38867 z" />
        <path
           d="m 438.34115,718.56731 8,-21.00195 c 0,0 -7.24314,3.7279 -12.06055,5.38085 -6.21958,2.13406 -19.72656,0 -19.72656,0 l 0,-44.38867 9.81445,-11.57226 -35.5957,0 6.5918,11.57226 0,48.38867 c -1.68519,5.02259 -6.49338,8.48369 -11.94894,11.6211 z"
           style="font-size:100px;font-weight:500;line-height:60.00000238%;fill:#000000;fill-opacity:1;stroke:none;font-family:LatiniaBlack;-inkscape-font-specification:LatiniaBlack Medium"
           id="path3823"
           inkscape:connector-curvature="0"
           sodipodi:nodetypes="ccscccccccc" />
        <path
           sodipodi:nodetypes="sscccccccccsccccccsssccs"
           inkscape:connector-curvature="0"
           id="path3843"
           d="m 239.69254,646.9456 c -2.42842,4.26077 -4.307,8.38173 -4.47932,13.12735 -0.26773,7.37284 2.37246,13.74603 7.90656,19.08073 3.9354,3.79178 10.90763,7.11769 20.90148,9.9838 7.76804,2.2338 12.72944,3.76374 14.90516,4.60641 3.17869,1.26103 5.38384,2.69087 6.59813,4.30477 1.2581,1.57313 1.84328,3.4894 1.76334,5.69273 -0.12469,3.43218 -1.79395,6.38397 -4.98091,8.85634 -3.14318,2.43157 -7.72643,3.53446 -13.7856,3.31443 -7.4097,1.13053 -28.22632,-4.09499 -33.28507,-9.27762 l 2.39753,20.25776 c 5.39653,2.71632 22.09942,4.58621 30.12409,4.8776 8.09306,0.29388 14.88398,-0.5568 20.38923,-2.60558 5.50666,-2.09116 9.82883,-5.42037 12.96421,-9.97363 3.13522,-4.55323 4.78608,-9.52139 4.98003,-14.86032 0.21378,-5.88971 -0.85477,-10.86501 -3.21002,-14.93882 -2.3115,-4.11456 -5.60732,-7.38744 -9.93088,-9.8356 -4.27978,-2.4889 -10.98029,-4.98928 -20.05417,-7.48265 -9.07399,-2.49327 -14.74453,-4.76313 -17.04421,-6.84176 -1.80831,-1.63449 -2.89094,-3.56827 -2.60539,-5.75458 1.57018,-12.02239 16.80564,-10.98249 23.82089,-10.74797 8.74005,0.29215 18.14774,3.07889 23.16923,9.59139 l -1.0031,-19.43821 c -19.82334,-10.45644 -51.31441,-6.37084 -59.54121,8.06343 z"
           style="font-size:130.25340271px;font-weight:bold;line-height:125%;fill:#000000;fill-opacity:1;stroke:none;font-family:Arial;-inkscape-font-specification:Arial Bold" />
        <path
           style="font-size:130.25340271px;font-weight:bold;line-height:125%;fill:#000000;fill-opacity:1;stroke:none;font-family:Arial;-inkscape-font-specification:Arial Bold"
           d="m 507.59034,646.9456 c -2.42842,4.26077 -4.307,8.38173 -4.47932,13.12735 -0.26773,7.37284 2.37246,13.74603 7.90656,19.08073 3.9354,3.79178 10.90763,7.11769 20.90148,9.9838 7.76804,2.2338 12.72944,3.76374 14.90516,4.60641 3.17869,1.26103 5.38384,2.69087 6.59813,4.30477 1.2581,1.57313 1.84328,3.4894 1.76334,5.69273 -0.12469,3.43218 -1.79395,6.38397 -4.98091,8.85634 -3.14318,2.43157 -7.72643,3.53446 -13.7856,3.31443 -7.4097,1.13053 -28.22632,-4.09499 -33.28507,-9.27762 l 2.39753,20.25776 c 5.39653,2.71632 22.09942,4.58621 30.12409,4.8776 8.09306,0.29388 14.88398,-0.5568 20.38923,-2.60558 5.50666,-2.09116 9.82883,-5.42037 12.96421,-9.97363 3.13522,-4.55323 4.78608,-9.52139 4.98003,-14.86032 0.21378,-5.88971 -0.85477,-10.86501 -3.21002,-14.93882 -2.3115,-4.11456 -5.60732,-7.38744 -9.93088,-9.8356 -4.27978,-2.4889 -10.98029,-4.98928 -20.05417,-7.48265 -9.07399,-2.49327 -14.74453,-4.76313 -17.04421,-6.84176 -1.80831,-1.63449 -2.89094,-3.56827 -2.60539,-5.75458 1.57018,-12.02239 16.80564,-10.98249 23.82089,-10.74797 8.74005,0.29215 18.14774,3.07889 23.16923,9.59139 l -1.0031,-19.43821 c -19.82334,-10.45644 -51.31441,-6.37084 -59.54121,8.06343 z"
           id="path3867"
           inkscape:connector-curvature="0"
           sodipodi:nodetypes="sscccccccccsccccccsssccs" />
      </g>
    </g>
  </g>
</svg>
